<?xml version="1.0" encoding="UTF-8" standalone="no" ?>
<svg xmlns="http://www.w3.org/2000/svg" width="63.392px" height="15.080px" viewBox="0 -683 3502.6 833" xmlns:xlink="http://www.w3.org/1999/xlink" aria-hidden="true" style=""><defs><path id="MJX-11-TEX-I-1D445" d="M230 637Q203 637 198 638T193 649Q193 676 204 682Q206 683 378 683Q550 682 564 680Q620 672 658 652T712 606T733 563T739 529Q739 484 710 445T643 385T576 351T538 338L545 333Q612 295 612 223Q612 212 607 162T602 80V71Q602 53 603 43T614 25T640 16Q668 16 686 38T712 85Q717 99 720 102T735 105Q755 105 755 93Q755 75 731 36Q693 -21 641 -21H632Q571 -21 531 4T487 82Q487 109 502 166T517 239Q517 290 474 313Q459 320 449 321T378 323H309L277 193Q244 61 244 59Q244 55 245 54T252 50T269 48T302 46H333Q339 38 339 37T336 19Q332 6 326 0H311Q275 2 180 2Q146 2 117 2T71 2T50 1Q33 1 33 10Q33 12 36 24Q41 43 46 45Q50 46 61 46H67Q94 46 127 49Q141 52 146 61Q149 65 218 339T287 628Q287 635 230 637ZM630 554Q630 586 609 608T523 636Q521 636 500 636T462 637H440Q393 637 386 627Q385 624 352 494T319 361Q319 360 388 360Q466 361 492 367Q556 377 592 426Q608 449 619 486T630 554Z"></path><path id="MJX-11-TEX-N-31" d="M213 578L200 573Q186 568 160 563T102 556H83V602H102Q149 604 189 617T245 641T273 663Q275 666 285 666Q294 666 302 660V361L303 61Q310 54 315 52T339 48T401 46H427V0H416Q395 3 257 3Q121 3 100 0H88V46H114Q136 46 152 46T177 47T193 50T201 52T207 57T213 61V578Z"></path><path id="MJX-11-TEX-N-2229" d="M88 -21T75 -21T55 -7V200Q55 231 55 280Q56 414 60 428Q61 430 61 431Q77 500 152 549T332 598Q443 598 522 544T610 405Q611 399 611 194V-7Q604 -22 591 -22Q582 -22 572 -9L570 405Q563 433 556 449T529 485Q498 519 445 538T334 558Q251 558 179 518T96 401Q95 396 95 193V-7Q88 -21 75 -21Z"></path><path id="MJX-11-TEX-N-32" d="M109 429Q82 429 66 447T50 491Q50 562 103 614T235 666Q326 666 387 610T449 465Q449 422 429 383T381 315T301 241Q265 210 201 149L142 93L218 92Q375 92 385 97Q392 99 409 186V189H449V186Q448 183 436 95T421 3V0H50V19V31Q50 38 56 46T86 81Q115 113 136 137Q145 147 170 174T204 211T233 244T261 278T284 308T305 340T320 369T333 401T340 431T343 464Q343 527 309 573T212 619Q179 619 154 602T119 569T109 550Q109 549 114 549Q132 549 151 535T170 489Q170 464 154 447T109 429Z"></path></defs><g stroke="#000000" fill="#000000" stroke-width="0" transform="scale(1,-1)"><g data-mml-node="math"><g data-mml-node="msub"><g data-mml-node="mi"><use data-c="1D445" xlink:href="#MJX-11-TEX-I-1D445"></use></g><g data-mml-node="mn" transform="translate(792,-150) scale(0.707)"><use data-c="31" xlink:href="#MJX-11-TEX-N-31"></use></g></g><g data-mml-node="mo" transform="translate(1417.8,0)"><use data-c="2229" xlink:href="#MJX-11-TEX-N-2229"></use></g><g data-mml-node="msub" transform="translate(2307,0)"><g data-mml-node="mi"><use data-c="1D445" xlink:href="#MJX-11-TEX-I-1D445"></use></g><g data-mml-node="mn" transform="translate(792,-150) scale(0.707)"><use data-c="32" xlink:href="#MJX-11-TEX-N-32"></use></g></g></g></g></svg>